<?xml version="1.0" encoding="UTF-8" standalone="no"?>
<!-- Created with Inkscape (http://www.inkscape.org/) -->

<svg
   width="120"
   height="120"
   viewBox="0 0 120 120"
   version="1.1"
   id="svg5"
   inkscape:version="1.2 (56b05e47e7, 2022-06-09, custom)"
   sodipodi:docname="texto.svg"
   xmlns:inkscape="http://www.inkscape.org/namespaces/inkscape"
   xmlns:sodipodi="http://sodipodi.sourceforge.net/DTD/sodipodi-0.dtd"
   xmlns="http://www.w3.org/2000/svg"
   xmlns:svg="http://www.w3.org/2000/svg">
  <sodipodi:namedview
     id="namedview7"
     pagecolor="#ffffff"
     bordercolor="#666666"
     borderopacity="1.0"
     inkscape:showpageshadow="2"
     inkscape:pageopacity="0.0"
     inkscape:pagecheckerboard="0"
     inkscape:deskcolor="#d1d1d1"
     inkscape:document-units="px"
     showgrid="false"
     inkscape:zoom="3.9333333"
     inkscape:cx="91.144068"
     inkscape:cy="61.398305"
     inkscape:window-width="1266"
     inkscape:window-height="666"
     inkscape:window-x="25"
     inkscape:window-y="21"
     inkscape:window-maximized="0"
     inkscape:current-layer="layer1" />
  <defs
     id="defs2" />
  <g
     inkscape:label="Capa 1"
     inkscape:groupmode="layer"
     id="layer1">
    <rect
       style="opacity:0.68;fill:#07519f;fill-opacity:1;stroke:#000000;stroke-width:5;paint-order:stroke fill markers"
       id="rect1848"
       width="117.53752"
       height="117.58511"
       x="0.16734754"
       y="0.32003111"
       rx="5.573"
       ry="0.5" />
    <g
       aria-label="Alvarez-App"
       id="text63"
       style="font-weight:bold;font-stretch:condensed;font-size:17.3333px;line-height:1.25;font-family:'Open Sans Condensed';-inkscape-font-specification:'Open Sans Condensed, Bold Condensed';fill:#ffffff"
       transform="translate(-11.552357,3.808842)">
      <path
         d="m 36.191072,54.82288 -0.710936,-3.123041 h -3.224604 l -0.710936,3.123041 h -2.302079 l 3.063797,-12.424455 h 3.12304 l 3.07226,12.424455 z m -1.142576,-5.162751 -0.660155,-2.877598 q -0.05924,-0.262369 -0.270833,-1.311847 -0.203125,-1.05794 -0.245442,-1.413408 -0.110026,0.727863 -0.279297,1.60807 -0.16927,0.871743 -0.880206,3.994783 z"
         id="path273"
         style="fill:#ffffff" />
      <path
         d="M 41.70929,54.82288 H 39.457992 V 41.653635 h 2.251298 z"
         id="path275"
         style="fill:#ffffff" />
      <path
         d="m 45.103164,54.82288 -2.462886,-9.428367 h 2.335933 l 1.20182,5.458973 q 0.07617,0.380859 0.177734,1.117186 0.110026,0.727863 0.135417,1.049477 h 0.03385 q 0.0085,-0.253906 0.06771,-0.727863 0.06771,-0.473958 0.135417,-0.871743 0.06771,-0.397786 1.303382,-6.02603 h 2.335933 l -2.471349,9.428367 z"
         id="path277"
         style="fill:#ffffff" />
      <path
         d="m 55.944939,54.82288 -0.448567,-1.286456 h -0.05078 q -0.499348,0.829425 -1.03255,1.142576 -0.533203,0.31315 -1.345701,0.31315 -1.041014,0 -1.641924,-0.778644 -0.592447,-0.778644 -0.592447,-2.166662 0,-1.489581 0.812499,-2.208981 Q 52.46643,49.11 54.091427,49.033829 l 1.252601,-0.05078 v -0.677082 q 0,-1.32031 -1.142576,-1.32031 -0.846352,0 -1.94661,0.660155 l -0.778645,-1.557288 q 1.404945,-0.88867 3.055333,-0.88867 1.498044,0 2.276688,0.863279 0.787108,0.854816 0.787108,2.429032 v 6.330717 z m -1.955075,-1.591143 q 0.617838,0 0.981769,-0.550129 0.372395,-0.558593 0.372395,-1.481117 V 50.40492 l -0.694009,0.03385 q -0.770181,0.04232 -1.134112,0.440103 -0.355468,0.397786 -0.355468,1.184894 0,1.167966 0.829425,1.167966 z"
         id="path279"
         style="fill:#ffffff" />
      <path
         d="m 63.43516,45.216779 q 0.414712,0 0.812498,0.126953 l -0.262369,2.183589 q -0.236979,-0.08463 -0.617838,-0.08463 -0.820962,0 -1.261065,0.651691 -0.440103,0.643228 -0.440103,1.878903 v 4.8496 h -2.251298 v -9.428367 h 1.853512 l 0.253906,1.472653 h 0.07617 q 0.372395,-0.88867 0.812498,-1.269529 0.440103,-0.380858 1.024087,-0.380858 z"
         id="path281"
         style="fill:#ffffff" />
      <path
         d="m 68.733324,54.99215 q -1.768876,0 -2.792963,-1.252601 -1.015623,-1.261066 -1.015623,-3.563145 0,-2.335933 0.922524,-3.647779 0.922524,-1.311846 2.572912,-1.311846 1.540361,0 2.429032,1.125649 0.88867,1.117185 0.88867,3.139967 v 1.201821 H 67.20989 q 0.02539,1.261065 0.516275,1.878903 0.490884,0.609373 1.354164,0.609373 1.100258,0 2.251298,-0.685545 v 1.853512 q -1.083332,0.651691 -2.598303,0.651691 z m -0.330077,-8.040349 q -0.482421,0 -0.795572,0.516275 -0.31315,0.507812 -0.363931,1.58268 h 2.285152 q -0.01693,-1.03255 -0.313151,-1.565753 -0.296223,-0.533202 -0.812498,-0.533202 z"
         id="path283"
         style="fill:#ffffff" />
      <path
         d="m 78.110911,54.82288 h -5.492828 v -1.438799 l 2.894525,-6.16991 H 72.80428 v -1.819658 h 5.188141 v 1.591142 l -2.80989,6.017567 h 2.92838 z"
         id="path285"
         style="fill:#ffffff" />
      <path
         d="m 79.067288,51.166637 v -1.980465 h 4.257153 v 1.980465 z"
         id="path287"
         style="fill:#ffffff" />
      <path
         d="m 90.882371,54.82288 -0.710936,-3.123041 h -3.224603 l -0.710936,3.123041 h -2.302079 l 3.063796,-12.424455 h 3.123041 L 93.192913,54.82288 Z M 89.739795,49.660129 89.07964,46.782531 q -0.05924,-0.262369 -0.270833,-1.311847 -0.203124,-1.05794 -0.245442,-1.413408 -0.110026,0.727863 -0.279296,1.60807 -0.169271,0.871743 -0.880207,3.994783 z"
         id="path289"
         style="fill:#ffffff" />
      <path
         d="m 98.355662,54.99215 q -0.609374,0 -1.083332,-0.270833 -0.465494,-0.279296 -0.871743,-0.973305 h -0.118489 q 0.135416,1.15104 0.135416,1.388018 v 3.850904 H 94.149289 V 45.394513 h 1.743487 l 0.389322,1.227211 h 0.101562 q 0.702473,-1.404945 2.03971,-1.404945 1.286456,0 2.01432,1.277992 0.72786,1.269529 0.72786,3.596998 0,2.293616 -0.75325,3.596998 -0.753256,1.303383 -2.056638,1.303383 z m -0.69401,-7.862615 q -0.660155,0 -0.956378,0.617838 -0.28776,0.609374 -0.304687,2.031246 v 0.296223 q 0,1.557289 0.296224,2.268225 0.296223,0.710936 0.981769,0.710936 1.184893,0 1.184893,-2.996088 0,-1.472653 -0.296223,-2.200516 -0.28776,-0.727864 -0.905598,-0.727864 z"
         id="path291"
         style="fill:#ffffff" />
      <path
         d="m 106.95461,54.99215 q -0.60938,0 -1.08333,-0.270833 -0.4655,-0.279296 -0.87175,-0.973305 h -0.11849 q 0.13542,1.15104 0.13542,1.388018 v 3.850904 h -2.26822 V 45.394513 h 1.74348 l 0.38932,1.227211 h 0.10157 q 0.70247,-1.404945 2.03971,-1.404945 1.28645,0 2.01431,1.277992 0.72787,1.269529 0.72787,3.596998 0,2.293616 -0.75326,3.596998 -0.75325,1.303383 -2.05663,1.303383 z m -0.69401,-7.862615 q -0.66016,0 -0.95638,0.617838 -0.28776,0.609374 -0.30469,2.031246 v 0.296223 q 0,1.557289 0.29623,2.268225 0.29622,0.710936 0.98177,0.710936 1.18489,0 1.18489,-2.996088 0,-1.472653 -0.29622,-2.200516 -0.28776,-0.727864 -0.9056,-0.727864 z"
         id="path293"
         style="fill:#ffffff" />
    </g>
  </g>
</svg>
